<?xml version="1.0" encoding="UTF-8" standalone="no"?>
<!DOCTYPE svg PUBLIC "-//W3C//DTD SVG 1.1//EN" "http://www.w3.org/Graphics/SVG/1.1/DTD/svg11.dtd">
<svg width="100%" height="100%" viewBox="0 0 435 103" version="1.1" xmlns="http://www.w3.org/2000/svg" xmlns:xlink="http://www.w3.org/1999/xlink" xml:space="preserve" xmlns:serif="http://www.serif.com/" style="fill-rule:evenodd;clip-rule:evenodd;stroke-linejoin:round;stroke-miterlimit:2;">
    <g transform="matrix(0.64,0,0,0.64,-85.4991,-69.3978)">
        <g transform="matrix(1,0,0,1,-157.043,-10.4363)">
            <g transform="matrix(150,0,0,150,281.335,239.02)">
                <path d="M0.233,-0.565L0.233,-0.423L0.462,-0.423L0.462,-0.291L0.233,-0.291L0.233,-0.137L0.492,-0.137L0.492,-0L0.062,-0L0.062,-0.702L0.492,-0.702L0.492,-0.565L0.233,-0.565Z" style="fill:rgb(38,73,236);fill-rule:nonzero;"/>
            </g>
            <g transform="matrix(150,0,0,150,362.485,239.02)">
                <path d="M0.373,-0.145L0.373,-0L0.286,-0C0.224,-0 0.176,-0.015 0.141,-0.046C0.106,-0.076 0.089,-0.125 0.089,-0.194L0.089,-0.416L0.021,-0.416L0.021,-0.558L0.089,-0.558L0.089,-0.694L0.26,-0.694L0.26,-0.558L0.372,-0.558L0.372,-0.416L0.26,-0.416L0.26,-0.192C0.26,-0.175 0.264,-0.163 0.272,-0.156C0.28,-0.149 0.293,-0.145 0.312,-0.145L0.373,-0.145Z" style="fill:rgb(38,73,236);fill-rule:nonzero;"/>
            </g>
            <g transform="matrix(150,0,0,150,423.385,239.02)">
                <path d="M0.405,-0.564C0.469,-0.564 0.52,-0.543 0.559,-0.501C0.598,-0.458 0.617,-0.4 0.617,-0.326L0.617,-0L0.447,-0L0.447,-0.303C0.447,-0.34 0.437,-0.369 0.418,-0.39C0.399,-0.411 0.373,-0.421 0.34,-0.421C0.307,-0.421 0.281,-0.411 0.262,-0.39C0.243,-0.369 0.233,-0.34 0.233,-0.303L0.233,-0L0.062,-0L0.062,-0.74L0.233,-0.74L0.233,-0.483C0.25,-0.508 0.274,-0.527 0.304,-0.542C0.334,-0.557 0.368,-0.564 0.405,-0.564Z" style="fill:rgb(38,73,236);fill-rule:nonzero;"/>
            </g>
            <g transform="matrix(150,0,0,150,524.485,239.02)">
                <path d="M0.148,-0.616C0.118,-0.616 0.094,-0.625 0.075,-0.643C0.055,-0.66 0.046,-0.682 0.046,-0.708C0.046,-0.735 0.055,-0.757 0.075,-0.775C0.094,-0.792 0.118,-0.801 0.148,-0.801C0.177,-0.801 0.202,-0.792 0.221,-0.775C0.24,-0.757 0.249,-0.735 0.249,-0.708C0.249,-0.682 0.24,-0.66 0.221,-0.643C0.202,-0.625 0.177,-0.616 0.148,-0.616ZM0.233,-0.558L0.233,-0L0.062,-0L0.062,-0.558L0.233,-0.558Z" style="fill:rgb(38,73,236);fill-rule:nonzero;"/>
            </g>
            <g transform="matrix(150,0,0,150,568.735,239.02)">
                <path d="M0.028,-0.279C0.028,-0.337 0.04,-0.388 0.064,-0.431C0.087,-0.474 0.12,-0.508 0.163,-0.531C0.205,-0.554 0.253,-0.566 0.308,-0.566C0.378,-0.566 0.437,-0.548 0.484,-0.511C0.531,-0.474 0.561,-0.423 0.576,-0.356L0.394,-0.356C0.379,-0.399 0.349,-0.42 0.305,-0.42C0.274,-0.42 0.249,-0.408 0.23,-0.384C0.211,-0.359 0.202,-0.324 0.202,-0.279C0.202,-0.234 0.211,-0.199 0.23,-0.175C0.249,-0.15 0.274,-0.138 0.305,-0.138C0.349,-0.138 0.379,-0.159 0.394,-0.202L0.576,-0.202C0.561,-0.137 0.53,-0.085 0.483,-0.048C0.436,-0.011 0.377,0.008 0.308,0.008C0.253,0.008 0.205,-0.004 0.163,-0.027C0.12,-0.05 0.087,-0.084 0.064,-0.127C0.04,-0.17 0.028,-0.221 0.028,-0.279Z" style="fill:rgb(38,73,236);fill-rule:nonzero;"/>
            </g>
            <g transform="matrix(150,0,0,150,659.485,239.02)">
                <path d="M0.499,-0.124L0.237,-0.124L0.195,-0L0.016,-0L0.27,-0.702L0.468,-0.702L0.722,-0L0.541,-0L0.499,-0.124ZM0.455,-0.256L0.368,-0.513L0.282,-0.256L0.455,-0.256Z" style="fill:rgb(38,73,236);fill-rule:nonzero;"/>
            </g>
            <g transform="matrix(150,0,0,150,770.035,239.02)">
                <path d="M0.233,-0.479C0.25,-0.505 0.273,-0.526 0.302,-0.542C0.331,-0.558 0.366,-0.566 0.405,-0.566C0.451,-0.566 0.493,-0.554 0.53,-0.531C0.567,-0.508 0.597,-0.474 0.619,-0.431C0.64,-0.388 0.651,-0.337 0.651,-0.28C0.651,-0.223 0.64,-0.172 0.619,-0.129C0.597,-0.085 0.567,-0.051 0.53,-0.028C0.493,-0.004 0.451,0.008 0.405,0.008C0.366,0.008 0.332,0 0.303,-0.016C0.273,-0.032 0.25,-0.053 0.233,-0.078L0.233,0.266L0.062,0.266L0.062,-0.558L0.233,-0.558L0.233,-0.479ZM0.477,-0.28C0.477,-0.323 0.465,-0.356 0.442,-0.381C0.418,-0.405 0.389,-0.417 0.354,-0.417C0.32,-0.417 0.291,-0.405 0.268,-0.38C0.244,-0.355 0.232,-0.322 0.232,-0.279C0.232,-0.236 0.244,-0.203 0.268,-0.178C0.291,-0.153 0.32,-0.141 0.354,-0.141C0.388,-0.141 0.417,-0.154 0.441,-0.179C0.465,-0.204 0.477,-0.237 0.477,-0.28Z" style="fill:rgb(38,73,236);fill-rule:nonzero;"/>
            </g>
            <g transform="matrix(150,0,0,150,871.885,239.02)">
                <path d="M0.233,-0.479C0.25,-0.505 0.273,-0.526 0.302,-0.542C0.331,-0.558 0.366,-0.566 0.405,-0.566C0.451,-0.566 0.493,-0.554 0.53,-0.531C0.567,-0.508 0.597,-0.474 0.619,-0.431C0.64,-0.388 0.651,-0.337 0.651,-0.28C0.651,-0.223 0.64,-0.172 0.619,-0.129C0.597,-0.085 0.567,-0.051 0.53,-0.028C0.493,-0.004 0.451,0.008 0.405,0.008C0.366,0.008 0.332,0 0.303,-0.016C0.273,-0.032 0.25,-0.053 0.233,-0.078L0.233,0.266L0.062,0.266L0.062,-0.558L0.233,-0.558L0.233,-0.479ZM0.477,-0.28C0.477,-0.323 0.465,-0.356 0.442,-0.381C0.418,-0.405 0.389,-0.417 0.354,-0.417C0.32,-0.417 0.291,-0.405 0.268,-0.38C0.244,-0.355 0.232,-0.322 0.232,-0.279C0.232,-0.236 0.244,-0.203 0.268,-0.178C0.291,-0.153 0.32,-0.141 0.354,-0.141C0.388,-0.141 0.417,-0.154 0.441,-0.179C0.465,-0.204 0.477,-0.237 0.477,-0.28Z" style="fill:rgb(38,73,236);fill-rule:nonzero;"/>
            </g>
        </g>
    </g>
</svg>
