<?xml version="1.0" encoding="UTF-8" standalone="no"?>
<!DOCTYPE svg PUBLIC "-//W3C//DTD SVG 1.1//EN" "http://www.w3.org/Graphics/SVG/1.1/DTD/svg11.dtd">
<svg width="100%" height="100%" viewBox="0 0 39 45" version="1.1" xmlns="http://www.w3.org/2000/svg" xmlns:xlink="http://www.w3.org/1999/xlink" xml:space="preserve" xmlns:serif="http://www.serif.com/" style="fill-rule:evenodd;clip-rule:evenodd;stroke-linejoin:round;stroke-miterlimit:2;">
    <g transform="matrix(1,0,0,1,-148.796,-1280.06)">
        <g transform="matrix(4.16667,0,0,4.16667,-76.362,-223.273)">
            <path d="M55.875,362.762C54.982,362.762 54.496,363.074 54.496,363.234C54.496,363.325 54.664,363.473 54.985,363.578C55.242,363.661 55.549,363.705 55.875,363.705C56.202,363.705 56.51,363.661 56.767,363.577C57.086,363.472 57.253,363.325 57.253,363.234C57.253,363.074 56.767,362.762 55.875,362.762ZM56.838,363.794L56.839,363.794L56.838,363.794ZM55.875,364.163C55.502,364.163 55.145,364.111 54.843,364.013C54.332,363.846 54.038,363.563 54.038,363.234C54.038,362.623 54.961,362.304 55.875,362.304C56.788,362.304 57.711,362.623 57.711,363.234C57.711,363.561 57.419,363.845 56.91,364.012L56.909,364.012C56.607,364.11 56.25,364.163 55.875,364.163Z" style="fill:rgb(38,73,236);fill-rule:nonzero;"/>
        </g>
        <g transform="matrix(4.16667,0,0,4.16667,-76.362,-223.273)">
            <path d="M59.58,370.919C57.896,370.919 56.504,369.642 56.324,368.005C56.588,368.235 56.963,368.435 57.436,368.587C58.061,368.792 58.802,368.899 59.58,368.899C60.361,368.899 61.105,368.791 61.732,368.586C62.201,368.432 62.573,368.234 62.835,368.005C62.655,369.642 61.264,370.919 59.58,370.919ZM56.365,367.007C56.56,366.443 57.824,365.873 59.58,365.873C61.335,365.873 62.6,366.444 62.794,367.007L62.823,367.169C62.812,367.53 62.342,367.905 61.589,368.151C61.008,368.34 60.313,368.44 59.58,368.44C58.85,368.44 58.158,368.341 57.577,368.153C56.821,367.907 56.348,367.531 56.337,367.169L56.365,367.007ZM58.418,364.577L58.493,364.652L58.534,364.685L58.596,364.73L58.627,364.751L58.742,364.809L58.76,364.817C58.991,364.917 59.286,364.968 59.578,364.968C60.053,364.968 60.532,364.834 60.735,364.574C61.463,364.849 62.06,365.375 62.433,366.036C61.76,365.654 60.741,365.415 59.58,365.415C58.418,365.415 57.4,365.654 56.726,366.036C57.099,365.376 57.694,364.851 58.418,364.577ZM58.083,361.78C58.083,361.572 58.68,361.257 59.58,361.257C60.48,361.257 61.077,361.572 61.077,361.78C61.077,361.881 60.909,362.044 60.543,362.165L60.405,362.202L60.311,362.226L60.175,362.251L60.08,362.269L59.918,362.286L59.835,362.293L59.58,362.302L59.327,362.293L59.248,362.286L59.084,362.269L58.995,362.253L58.853,362.227L58.762,362.205L58.645,362.172L58.593,362.155C58.245,362.037 58.083,361.878 58.083,361.78ZM59.063,362.726L59.222,362.744L59.343,362.752L59.482,362.757L59.58,362.76L59.672,362.757L59.823,362.751L59.936,362.744L60.107,362.725L60.177,362.716L60.384,362.68L60.384,364.238L60.379,364.283C60.355,364.347 60.081,364.509 59.577,364.51L59.528,364.508L59.404,364.503L59.302,364.492L59.251,364.486L59.148,364.464L59.12,364.459L59.023,364.43L59.01,364.426L58.925,364.393L58.921,364.392L58.779,364.297L58.779,362.68L58.984,362.717L59.063,362.726ZM63.28,367.131L63.236,366.877C62.972,365.614 62.061,364.566 60.842,364.127L60.842,362.541C61.283,362.361 61.534,362.088 61.534,361.78C61.534,361.221 60.694,360.799 59.58,360.799C58.465,360.799 57.626,361.221 57.626,361.78C57.626,362.09 57.877,362.362 58.321,362.543L58.321,364.126C57.101,364.564 56.188,365.614 55.923,366.877L55.878,367.134C55.857,367.301 55.844,367.472 55.844,367.642C55.844,369.702 57.52,371.377 59.58,371.377C61.639,371.377 63.315,369.702 63.315,367.642C63.315,367.472 63.303,367.3 63.28,367.131Z" style="fill:rgb(38,73,236);fill-rule:nonzero;"/>
        </g>
        <g transform="matrix(4.16667,0,0,4.16667,-76.362,-223.273)">
            <path d="M56.24,369.313C56.127,369.359 56.004,369.384 55.875,369.384C55.334,369.384 54.895,368.945 54.895,368.404L54.895,365.943L55.082,366.018C55.314,366.093 55.588,366.133 55.875,366.133C55.977,366.133 56.076,366.126 56.173,366.117C56.253,365.937 56.348,365.765 56.455,365.601C56.084,365.702 55.576,365.697 55.223,365.583C54.955,365.495 54.895,365.393 54.895,365.377C54.895,365.303 55.242,365.079 55.875,365.079C56.272,365.079 56.558,365.168 56.714,365.252C56.892,365.04 57.092,364.846 57.313,364.677L57.313,363.096C57.313,362.97 57.21,362.868 57.085,362.868C56.958,362.868 56.855,362.97 56.855,363.096L56.855,364.81C56.586,364.685 56.229,364.622 55.875,364.622C55.52,364.622 55.164,364.685 54.895,364.81L54.895,363.096C54.895,362.97 54.792,362.868 54.666,362.868C54.539,362.868 54.436,362.97 54.436,363.096L54.436,368.404C54.436,369.197 55.082,369.842 55.875,369.842C56.087,369.842 56.29,369.794 56.471,369.711C56.386,369.584 56.31,369.451 56.24,369.313Z" style="fill:rgb(38,73,236);fill-rule:nonzero;"/>
        </g>
        <g transform="matrix(4.16667,0,0,4.16667,-76.362,-223.273)">
            <path d="M57.77,366.918C57.797,366.939 57.852,366.972 57.943,367.001C58.194,367.084 58.583,367.084 58.834,367.001L59.003,366.918C58.934,366.861 58.721,366.771 58.387,366.771C58.053,366.771 57.84,366.861 57.77,366.918ZM58.904,367.218L58.906,367.218L58.904,367.218ZM58.387,367.522C58.176,367.522 57.974,367.494 57.801,367.437C57.48,367.333 57.295,367.143 57.295,366.918C57.295,366.561 57.745,366.313 58.387,366.313C59.031,366.313 59.479,366.561 59.479,366.918C59.479,367.142 59.295,367.332 58.975,367.436C58.802,367.493 58.599,367.522 58.387,367.522Z" style="fill:rgb(38,73,236);fill-rule:nonzero;"/>
        </g>
        <g transform="matrix(4.16667,0,0,4.16667,-76.362,-223.273)">
            <path d="M60.148,367.353C60.175,367.375 60.229,367.407 60.321,367.437C60.571,367.519 60.96,367.518 61.21,367.436C61.301,367.407 61.354,367.375 61.381,367.353C61.311,367.296 61.098,367.207 60.764,367.207C60.431,367.207 60.217,367.296 60.148,367.353ZM60.764,367.959C60.553,367.959 60.35,367.929 60.178,367.873C59.857,367.768 59.673,367.579 59.673,367.353C59.673,366.997 60.122,366.749 60.764,366.749C61.407,366.749 61.856,366.997 61.856,367.353C61.856,367.578 61.673,367.767 61.353,367.872C61.18,367.928 60.977,367.959 60.764,367.959Z" style="fill:rgb(38,73,236);fill-rule:nonzero;"/>
        </g>
    </g>
</svg>
