<?xml version="1.0" encoding="UTF-8" standalone="no"?>
<!DOCTYPE svg PUBLIC "-//W3C//DTD SVG 1.1//EN" "http://www.w3.org/Graphics/SVG/1.1/DTD/svg11.dtd">
<svg width="100%" height="100%" viewBox="0 0 46 46" version="1.1" xmlns="http://www.w3.org/2000/svg" xmlns:xlink="http://www.w3.org/1999/xlink" xml:space="preserve" xmlns:serif="http://www.serif.com/" style="fill-rule:evenodd;clip-rule:evenodd;stroke-linejoin:round;stroke-miterlimit:2;">
    <g transform="matrix(1,0,0,1,-143.582,-1212.45)">
        <g transform="matrix(4.16667,0,0,4.16667,-166.456,887.488)">
            <path d="M74.64,80.594C74.512,80.594 74.409,80.697 74.409,80.825L74.409,80.856C74.409,80.984 74.512,81.087 74.64,81.087C74.767,81.087 74.872,80.984 74.872,80.856L74.872,80.825C74.872,80.697 74.767,80.594 74.64,80.594Z" style="fill:rgb(38,73,236);fill-rule:nonzero;"/>
        </g>
        <g transform="matrix(4.16667,0,0,4.16667,-166.456,887.488)">
            <path d="M74.64,79.283C74.512,79.283 74.409,79.387 74.409,79.515L74.409,79.547C74.409,79.675 74.512,79.778 74.64,79.778C74.767,79.778 74.872,79.675 74.872,79.547L74.872,79.515C74.872,79.387 74.767,79.283 74.64,79.283Z" style="fill:rgb(38,73,236);fill-rule:nonzero;"/>
        </g>
        <g transform="matrix(4.16667,0,0,4.16667,-166.456,887.488)">
            <path d="M74.64,81.903C74.512,81.903 74.409,82.007 74.409,82.135L74.409,82.167C74.409,82.295 74.512,82.397 74.64,82.397C74.767,82.397 74.872,82.295 74.872,82.167L74.872,82.135C74.872,82.007 74.767,81.903 74.64,81.903Z" style="fill:rgb(38,73,236);fill-rule:nonzero;"/>
        </g>
        <g transform="matrix(4.16667,0,0,4.16667,-166.456,887.488)">
            <path d="M74.64,77.99C74.512,77.99 74.409,78.094 74.409,78.221L74.409,78.236C74.409,78.364 74.512,78.46 74.64,78.46L74.739,78.437C74.823,78.402 74.879,78.318 74.879,78.221C74.879,78.094 74.767,77.99 74.64,77.99Z" style="fill:rgb(38,73,236);fill-rule:nonzero;"/>
        </g>
        <g transform="matrix(4.16667,0,0,4.16667,-166.456,887.488)">
            <path d="M77.275,77.99L77.244,77.99C77.116,77.99 77.012,78.094 77.012,78.221C77.012,78.349 77.116,78.452 77.244,78.452L77.275,78.452C77.403,78.452 77.506,78.349 77.506,78.221C77.506,78.094 77.403,77.99 77.275,77.99Z" style="fill:rgb(38,73,236);fill-rule:nonzero;"/>
        </g>
        <g transform="matrix(4.16667,0,0,4.16667,-166.456,887.488)">
            <path d="M78.585,77.99L78.553,77.99C78.425,77.99 78.323,78.094 78.323,78.221C78.323,78.349 78.425,78.452 78.553,78.452L78.585,78.452C78.713,78.452 78.816,78.349 78.816,78.221C78.816,78.094 78.713,77.99 78.585,77.99Z" style="fill:rgb(38,73,236);fill-rule:nonzero;"/>
        </g>
        <g transform="matrix(4.16667,0,0,4.16667,-166.456,887.488)">
            <path d="M75.965,77.99L75.933,77.99C75.805,77.99 75.703,78.094 75.703,78.221C75.703,78.349 75.805,78.452 75.933,78.452L75.965,78.452C76.092,78.452 76.196,78.349 76.196,78.221C76.196,78.094 76.092,77.99 75.965,77.99Z" style="fill:rgb(38,73,236);fill-rule:nonzero;"/>
        </g>
        <g transform="matrix(4.16667,0,0,4.16667,-166.456,887.488)">
            <path d="M84.886,83.229L83.665,83.229L83.494,83.28C83.395,83.361 83.379,83.507 83.46,83.605C83.64,83.827 83.735,84.096 83.735,84.382C83.735,85.063 83.18,85.619 82.498,85.619C81.816,85.619 81.26,85.063 81.26,84.382C81.26,84.096 81.356,83.827 81.537,83.604C81.617,83.506 81.601,83.36 81.503,83.279L81.333,83.229L80.11,83.229L80.11,82.392C80.327,82.488 80.562,82.539 80.801,82.539C81.738,82.539 82.501,81.777 82.501,80.841C82.501,79.904 81.738,79.142 80.801,79.142C80.562,79.142 80.327,79.193 80.11,79.29L80.11,78.452L84.886,78.452L84.886,83.229ZM84.886,88.473L80.11,88.473L80.11,87.266L80.108,87.25L80.058,87.08C79.978,86.98 79.832,86.966 79.734,87.046C79.511,87.226 79.243,87.32 78.957,87.32C78.274,87.32 77.719,86.766 77.719,86.084C77.719,85.401 78.274,84.847 78.957,84.847C79.243,84.847 79.512,84.942 79.734,85.122C79.834,85.202 79.978,85.187 80.059,85.088L80.109,84.919L80.11,84.914L80.11,83.69L80.947,83.69C80.85,83.907 80.799,84.144 80.799,84.382C80.799,85.319 81.561,86.081 82.498,86.081C83.435,86.081 84.198,85.319 84.198,84.382C84.198,84.143 84.146,83.907 84.049,83.69L84.886,83.69L84.886,88.473ZM79.647,88.473L74.872,88.473L74.872,83.696L76.078,83.696L76.093,83.694L76.264,83.645C76.363,83.563 76.378,83.418 76.297,83.319C76.118,83.097 76.022,82.828 76.022,82.542C76.022,81.86 76.578,81.306 77.259,81.306C77.942,81.306 78.497,81.86 78.497,82.542C78.497,82.828 78.401,83.098 78.221,83.32C78.14,83.419 78.156,83.564 78.255,83.645L78.4,83.696L78.418,83.694L78.429,83.696L79.647,83.696L79.647,84.532C79.431,84.437 79.196,84.385 78.957,84.385C78.019,84.385 77.257,85.147 77.257,86.084C77.257,87.021 78.019,87.783 78.957,87.783C79.196,87.783 79.431,87.731 79.647,87.635L79.647,88.473ZM85.118,77.99L79.878,77.99C79.751,77.99 79.647,78.094 79.647,78.221L79.647,79.659L79.649,79.675L79.699,79.845C79.779,79.944 79.925,79.959 80.024,79.879C80.247,79.699 80.515,79.604 80.801,79.604C81.484,79.604 82.038,80.159 82.038,80.841C82.038,81.522 81.484,82.077 80.801,82.077C80.515,82.077 80.246,81.982 80.024,81.802C79.923,81.722 79.779,81.737 79.698,81.836L79.648,82.005L79.647,82.011L79.647,83.233L78.811,83.233C78.908,83.017 78.959,82.781 78.959,82.542C78.959,81.605 78.197,80.844 77.259,80.844C76.323,80.844 75.56,81.605 75.56,82.542C75.56,82.781 75.612,83.017 75.708,83.233L74.64,83.233C74.512,83.233 74.409,83.337 74.409,83.465L74.409,88.703C74.409,88.831 74.512,88.935 74.64,88.935L85.118,88.935C85.245,88.935 85.349,88.831 85.349,88.703L85.349,83.465L85.348,83.462L85.349,83.46L85.349,78.221C85.349,78.094 85.245,77.99 85.118,77.99Z" style="fill:rgb(38,73,236);fill-rule:nonzero;"/>
        </g>
    </g>
</svg>
